#!OML:ASF F:\twosubjects\two\Thursday\Session 1\Rory.ASF
:FULLY-SPECIFIED
:DEGREES
781
root 15.8935 17.7944 9.18515 -157.151 -28.3906 166.615
lowerback 27.7933 1.90379 3.50693
upperback 10.3958 1.65528 3.47159
thorax -3.69461 0.0491129 1.34782
lowerneck -6.3555 -0.841962 -0.984201
upperneck -10.5438 -1.52618 1.41753
head -2.22222 -1.00385 0.622293
rclavicle 1.90833e-014 -7.63333e-014
rhumerus 15.801 -11.8951 -87.3335
rradius 70.2708
rwrist -56.5252
rhand -9.42235 18.1519
rfingers 7.12502
rthumb 16.5398 -11.1632
lclavicle 1.90833e-014 -7.63333e-014
lhumerus 15.6082 -18.8453 80.1676
lradius 28.9976
lwrist -30.8999
lhand -35.7867 60.675
lfingers 7.12502
lthumb -8.90398 -1530.47
rfemur -45.2495 9.08837 -2.69729
rtibia 51.5464
rfoot -17.5727 -8.93474
rtoes -3.49162
lfemur -31.2552 17.6356 -19.4704
ltibia 49.394
lfoot -13.0774 6.67906
ltoes -6.47675
782
root 15.9177 17.7434 9.25478 -156.155 -28.725 166.434
lowerback 26.5793 1.47127 3.96497
upperback 10.2285 1.24542 3.24867
thorax -3.28499 -0.0903996 0.958836
lowerneck -6.55667 -0.685314 -1.31019
upperneck -10.2581 -1.29043 1.45515
head -2.09549 -0.869979 0.684235
rclavicle -6.67916e-014 -4.92986e-014
rhumerus 15.927 -11.7126 -87.061
rradius 67.9596
rwrist -57.0981
rhand -8.78142 18.7559
rfingers 7.12502
rthumb 17.1568 -10.5066
lclavicle -6.67916e-014 -4.92986e-014
lhumerus 16.0029 -18.2152 80.0684
lradius 28.5646
lwrist -31.1706
lhand -36.2027 59.7024
lfingers 7.12502
lthumb -9.30539 -1350.52
rfemur -46.1816 7.76681 -2.71676
rtibia 51.5332
rfoot -16.8052 -8.78462
rtoes -6.92305
lfemur -32.5761 17.0791 -20.5042
ltibia 50.4572
lfoot -14.0987 7.7822
ltoes -5.77337
783
root 15.9534 17.7517 9.31213 -155.547 -29.3093 166.55
lowerback 25.6451 1.04212 4.63399
upperback 10.0824 0.871528 3.14853
thorax -2.97961 -0.22299 0.568673
lowerneck -6.4707 -0.555575 -1.29017
upperneck -10.2698 -1.13206 1.23703
head -2.11717 -0.787195 0.613108
rclavicle 3.18055e-014 1.90833e-014
rhumerus 15.9546 -11.4992 -86.9741
rradius 66.3113
rwrist -57.5147
rhand -8.47118 18.89
rfingers 7.12502
rthumb 17.4554 -10.3463
lclavicle 3.18055e-014 1.90833e-014
lhumerus 16.3321 -17.6027 79.9309
lradius 28.2193
lwrist -31.3818
lhand -37.0442 58.7784
lfingers 7.12502
lthumb -10.1173 -1351.48
rfemur -47.137 6.7954 -2.44834
rtibia 51.6442
rfoot -16.6043 -8.00463
rtoes -3.89633
lfemur -33.4862 16.5471 -21.0692
ltibia 51.3882
lfoot -14.772 8.78532
ltoes -5.94946
784
root 16.0237 17.7595 9.33243 -156.091 -29.0205 167.021
lowerback 25.9642 1.28146 4.474
upperback 10.1189 1.13742 3.11381
thorax -3.09213 -0.106249 0.550619
lowerneck -6.42415 -0.471225 -0.877118
upperneck -10.1948 -1.06161 0.78275
head -2.10404 -0.754547 0.40042
rclavicle -4.29375e-014 -1.27222e-014
rhumerus 16.1812 -11.5301 -87.072
rradius 64.2171
rwrist -57.7735
rhand -8.13318 19.2724
rfingers 7.12502
rthumb 17.7807 -9.9347
lclavicle -4.29375e-014 -1.27222e-014
lhumerus 16.6108 -17.3566 79.6853
lradius 28.0122
lwrist -31.8227
lhand -36.5476 57.2319
lfingers 7.12502
lthumb -9.6382 -1353.01
rfemur -47.3314 7.22352 -2.01029
rtibia 51.6607
rfoot -16.5071 -7.60126
rtoes -1.79315
lfemur -33.0112 17.3118 -21.1933
ltibia 52.2212
lfoot -15.393 9.41423
ltoes -5.44056
785
root 16.0887 17.7617 9.35359 -156.332 -28.9682 167.132
lowerback 26.2114 1.30974 4.21088
upperback 10.079 1.12455 3.05346
thorax -3.26431 -0.120884 0.638959
lowerneck -6.57414 -0.245399 -0.894413
upperneck -9.8582 -0.760692 0.505686
head -1.97165 -0.591473 0.313475
rclavicle -3.49861e-014 -5.40694e-014
rhumerus 16.7636 -11.0936 -87.1442
rradius 61.6455
rwrist -58.1179
rhand -10.2173 19.8436
rfingers 7.12502
rthumb 15.7744 -9.53364
lclavicle -3.49861e-014 -5.40694e-014
lhumerus 16.7382 -17.5491 79.165
lradius 28.492
lwrist -32.3587
lhand -34.5661 56.2056
lfingers 7.12502
lthumb -7.72595 -1353.96
rfemur -47.4048 7.34585 -1.76931
rtibia 51.6579
rfoot -16.2461 -7.58969
rtoes -2.02716
lfemur -32.6546 17.8792 -21.6388
ltibia 52.8048
lfoot -15.8009 10.0103
ltoes -5.00003
786
root 16.146 17.7801 9.3799 -156.532 -29.2176 167.31
lowerback 26.2665 1.16209 4.23655
upperback 10.0744 0.938949 3.06235
thorax -3.29756 -0.214497 0.686211
lowerneck -6.7624 -0.0516837 -1.25944
upperneck -9.63188 -0.474594 0.53333
head -1.86845 -0.434475 0.381568
rclavicle 6.83819e-014 -1.59028e-015
rhumerus 17.5977 -10.3929 -87.0657
rradius 59.3234
rwrist -58.6088
rhand -12.6229 21.6294
rfingers 7.12502
rthumb 13.4566 -7.91589
lclavicle 6.83819e-014 -1.59028e-015
lhumerus 16.9764 -17.2622 78.9111
lradius 28.846
lwrist -32.967
lhand -33.5165 55.4642
lfingers 7.12502
lthumb -6.71282 -1354.66
rfemur -47.3486 7.76675 -1.56418
rtibia 51.5486
rfoot -16.0008 -7.94108
rtoes -1.47378
lfemur -32.3497 18.0781 -21.9316
ltibia 53.2797
lfoot -16.328 10.5668
ltoes -5.01198
787
root 16.1986 17.7973 9.41653 -156.683 -29.4898 167.572
lowerback 26.1735 1.10741 4.55891
upperback 10.088 0.940023 3.03531
thorax -3.22543 -0.204524 0.472408
lowerneck -6.77999 -0.0821916 -1.21723
upperneck -9.76386 -0.532177 0.449136
head -1.90798 -0.467389 0.34878
rclavicle 6.36111e-015 -2.8625e-014
rhumerus 18.2042 -10.0887 -86.7609
rradius 57.6121
rwrist -59.2464
rhand -14.5527 23.4864
rfingers 7.12502
rthumb 11.5961 -6.17281
lclavicle 6.36111e-015 -2.8625e-014
lhumerus 17.4338 -16.3275 79.2738
lradius 28.2087
lwrist -33.3899
lhand -34.3436 54.443
lfingers 7.12502
lthumb -7.51122 -1355.71
rfemur -47.4154 8.09236 -1.30181
rtibia 51.4482
rfoot -15.8458 -8.37245
rtoes -1.46839
lfemur -32.1885 18.1079 -22.1589
ltibia 53.7572
lfoot -16.9867 11.0458
ltoes -3.1714
788
root 16.2482 17.8002 9.45445 -156.618 -29.6513 167.784
lowerback 25.8924 1.13233 4.91828
upperback 10.0392 1.06683 2.88276
thorax -3.12568 -0.11685 0.0660702
lowerneck -6.71751 -0.112914 -0.746583
upperneck -9.93817 -0.630764 0.0498692
head -1.9758 -0.529122 0.146524
rclavicle -5.24792e-014 -2.06736e-014
rhumerus 18.3765 -9.7557 -86.2705
rradius 56.4296
rwrist -60.1722
rhand -16.7489 25.0708
rfingers 7.12502
rthumb 9.47758 -4.6961
lclavicle -5.24792e-014 -2.06736e-014
lhumerus 17.9421 -16.3928 79.2385
lradius 27.7189
lwrist -32.6755
lhand -35.3993 52.9206
lfingers 7.12502
lthumb -8.53017 -1357.27
rfemur -47.8341 7.69347 -0.941803
rtibia 51.4739
rfoot -15.7775 -8.05239
rtoes -0.927365
lfemur -32.3152 18.3745 -22.5854
ltibia 54.2468
lfoot -17.3797 11.4335
ltoes -3.44345
789
root 16.2954 17.7958 9.48575 -156.403 -29.7837 167.728
lowerback 25.4248 1.19419 4.8841
upperback 10.081 1.12318 2.81617
thorax -2.85376 -0.0737463 -0.00287831
lowerneck -6.80605 -0.0718841 -0.59837
upperneck -10.0038 -0.620324 -0.391815
head -1.984 -0.525482 -0.0160892
rclavicle -6.36111e-015 -5.56597e-014
rhumerus 18.4122 -9.00596 -85.5586
rradius 55.4683
rwrist -61.2542
rhand -18.8648 26.6529
rfingers 7.12502
rthumb 7.43562 -3.19643
lclavicle -6.36111e-015 -5.56597e-014
lhumerus 18.4328 -16.5986 79.193
lradius 27.6965
lwrist -32.121
lhand -34.8147 50.9702
lfingers 7.12502
lthumb -7.96596 -1359.2
rfemur -48.2165 7.26507 -0.844799
rtibia 51.5915
rfoot -15.7957 -7.67786
rtoes 0.0498909
lfemur -32.4446 18.7916 -23.3036
ltibia 54.7685
lfoot -17.7311 11.9482
ltoes -5.85781
790
root 16.3454 17.7896 9.51824 -156.348 -29.9366 167.555
lowerback 25.2266 1.21502 4.48599
upperback 10.1606 1.03905 2.90041
thorax -2.6904 -0.125111 0.336386
lowerneck -6.87097 0.0516196 -0.934112
upperneck -10.0318 -0.458791 -0.596928
head -1.9827 -0.43341 -0.0239335
rclavicle 0 -6.36111e-015
rhumerus 18.3444 -7.78618 -84.7332
rradius 54.6985
rwrist -62.378
rhand -20.2284 27.9265
rfingers 7.12502
rthumb 6.11928 -1.96512
lclavicle 0 -6.36111e-015
lhumerus 18.6563 -16.1336 79.5295
lradius 27.9528
lwrist -31.819
lhand -33.2706 52.0775
lfingers 7.12502
lthumb -6.4755 -1358.04
rfemur -48.3748 7.11685 -0.86746
rtibia 51.703
rfoot -15.667 -7.7861
rtoes -1.85334
lfemur -32.3025 19.1136 -23.986
ltibia 55.3465
lfoot -18.4398 12.2441
ltoes -4.98017
791
root 16.3958 17.779 9.55809 -156.431 -30.231 167.617
lowerback 25.2085 1.10827 4.36671
upperback 10.0925 0.892304 2.9064
thorax -2.76525 -0.196332 0.449553
lowerneck -6.68128 0.27766 -0.975232
upperneck -10.0295 -0.160849 -0.784877
head -2.0147 -0.276175 -0.0749139
rclavicle -6.36111e-015 -6.04305e-014
rhumerus 19.3937 -6.34583 -83.8555
rradius 52.6337
rwrist -63.8319
rhand -21.5843 29.105
rfingers 7.12502
rthumb 4.81014 -0.820441
lclavicle -6.36111e-015 -6.04305e-014
lhumerus 18.7111 -15.7087 79.7808
lradius 28.2389
lwrist -31.624
lhand -32.5 55.1612
lfingers 7.12502
lthumb -5.73145 -1354.94
rfemur -48.4285 6.81848 -0.571383
rtibia 51.6171
rfoot -15.2397 -7.90091
rtoes -6.25303
lfemur -32.159 19.3158 -24.3783
ltibia 55.8467
lfoot -18.9362 12.076
ltoes -3.60253
792
root 16.4416 17.755 9.60194 -156.525 -30.598 167.683
lowerback 25.1737 1.0021 4.60846
upperback 10.0352 0.826121 2.73678
thorax -2.80258 -0.211581 0.145818
lowerneck -6.46528 0.399461 -0.540004
upperneck -10.1206 -0.0358112 -1.08384
head -2.08099 -0.220257 -0.240893
rclavicle -2.8625e-014 -3.33958e-014
rhumerus 19.4885 -5.24911 -83.1627
rradius 51.3876
rwrist -65.2978
rhand -23.1727 30.702
rfingers 7.12502
rthumb 3.27629 0.747461
lclavicle -2.8625e-014 -3.33958e-014
lhumerus 19.0421 -15.2775 80.0487
lradius 28.1001
lwrist -32.27
lhand -31.9333 55.7091
lfingers 7.12502
lthumb -5.18429 -1354.37
rfemur -48.3216 6.39899 -0.238898
rtibia 51.4626
rfoot -14.8266 -7.92005
rtoes -9.83368
lfemur -32.0629 19.6639 -24.7857
ltibia 56.3411
lfoot -18.9372 11.9899
ltoes -4.00803
793
root 16.4884 17.7779 9.64118 -156.645 -30.914 167.624
lowerback 25.2303 0.94177 4.74159
upperback 10.0867 0.76882 2.57206
thorax -2.7673 -0.232715 -0.0931957
lowerneck -6.53392 0.482295 -0.223315
upperneck -10.2126 0.034219 -1.34801
head -2.09936 -0.195386 -0.376649
rclavicle 7.95139e-015 3.18055e-015
rhumerus 19.3481 -4.27828 -82.5342
rradius 50.8681
rwrist -66.6352
rhand -24.9542 29.8815
rfingers 7.12502
rthumb 1.55583 -0.0925401
lclavicle 7.95139e-015 3.18055e-015
lhumerus 19.4455 -15.7684 79.9184
lradius 28.588
lwrist -30.9516
lhand -32.9553 55.7613
lfingers 7.12502
lthumb -6.17107 -1354.35
rfemur -47.9376 6.23002 -0.0646722
rtibia 51.1487
rfoot -14.4801 -8.17686
rtoes -11.6387
lfemur -31.7501 20.5253 -25.3355
ltibia 56.6135
lfoot -18.6433 11.8701
ltoes -4.2527
794
root 16.5475 17.7625 9.66736 -156.937 -31.0184 167.807
lowerback 25.2926 1.09317 4.51646
upperback 10.1454 0.903051 2.59278
thorax -2.73662 -0.176243 0.0215181
lowerneck -6.62364 0.57528 -0.0639726
upperneck -10.2333 0.121427 -1.70836
head -2.09075 -0.154024 -0.516426
rclavicle 1.59028e-014 1.27222e-014
rhumerus 19.3155 -3.00175 -81.5938
rradius 50.5517
rwrist -68.1862
rhand -27.5935 27.3744
rfingers 7.12502
rthumb -0.993285 -2.60303
lclavicle 1.59028e-014 1.27222e-014
lhumerus 19.6894 -16.6857 79.7721
lradius 29.4637
lwrist -28.9945
lhand -35.0163 57.3992
lfingers 7.12502
lthumb -8.16051 -1352.78
rfemur -47.8921 6.67534 0.145291
rtibia 51.0382
rfoot -14.1405 -8.66928
rtoes -12.5252
lfemur -31.466 21.2515 -25.5856
ltibia 56.9667
lfoot -18.3101 11.8061
ltoes -3.97549
795
root 16.5881 17.7376 9.70903 -157.048 -31.6079 167.855
lowerback 25.2395 0.961809 4.81666
upperback 10.0771 0.822857 2.56938
thorax -2.77812 -0.201264 -0.15312
lowerneck -6.49237 0.601 0.0263546
upperneck -10.198 0.141791 -1.98412
head -2.10178 -0.137414 -0.618817
rclavicle 3.65764e-014 1.59028e-014
rhumerus 18.8998 -1.51273 -80.4608
rradius 50.6508
rwrist -69.9659
rhand -30.2052 27.2362
rfingers 7.12502
rthumb -3.51565 -2.71457
lclavicle 3.65764e-014 1.59028e-014
lhumerus 19.8358 -16.8825 80.0463
lradius 29.691
lwrist -28.2669
lhand -35.5045 58.353
lfingers 7.12502
lthumb -8.63168 -1351.84
rfemur -47.8197 6.34517 0.403567
rtibia 51.0493
rfoot -13.8991 -8.89105
rtoes -14.0965
lfemur -31.1947 21.2675 -25.8586
ltibia 57.2014
lfoot -17.8579 11.7922
ltoes -3.38944
